<?xml version="1.0" standalone="no"?>
<!DOCTYPE svg PUBLIC "-//W3C//DTD SVG 1.0//EN" "http://www.w3.org/TR/2001/REC-SVG-20010904/DTD/svg10.dtd">
<svg xmlns="http://www.w3.org/2000/svg" xmlns:xlink="http://www.w3.org/1999/xlink" id="body_-1438877612_1335" width="1058.5599365234375" height="1496.320068359375">

<g transform="matrix(9.9344848563186527 0 0 9.9344848563186527 2.7522708768301527 221.63233679479887)" >
        <g transform="matrix(1.3299999237060547 0 0 1.3299999237060547 -0 -0)" >
            <g transform="matrix(0.75 0 0 0.75 0 0)" >
                <g transform="matrix(1 0 0 1 0 0)" >
                        <path d="M106 53C 106.00000762939453 67.635551452636719 100.8255615234375 80.127769470214844 90.476654052734375 90.476654052734375C 80.127769470214844 100.8255615234375 67.635551452636719 106.00000762939453 53 106C 38.364456176757812 106.00000762939453 25.872236251831055 100.8255615234375 15.523342132568359 90.476654052734375C 5.1744475364685059 80.127769470214844 0 67.635551452636719 0 53C 0 38.364456176757812 5.1744475364685059 25.872236251831055 15.523342132568359 15.523342132568359C 25.872236251831055 5.1744475364685059 38.364456176757812 0 53 0C 67.635551452636719 0 80.127769470214844 5.1744475364685059 90.476654052734375 15.523342132568359C 100.8255615234375 25.872236251831055 106.00000762939453 38.364456176757812 106 53C 106.00000762939453 53.616748809814453 105.98924255371094 54.233306884765625 105.96771240234375 54.849674224853516" stroke="#94D0D5" stroke-width="0" stroke-opacity="1" fill="#94D0D5" fill-rule="nonzero" fill-opacity="1" />
                </g>
            </g>
        </g>
</g>
</svg>