<?xml version="1.0" standalone="no"?>
<!DOCTYPE svg PUBLIC "-//W3C//DTD SVG 20010904//EN"
 "http://www.w3.org/TR/2001/REC-SVG-20010904/DTD/svg10.dtd">
<svg version="1.0" xmlns="http://www.w3.org/2000/svg"
 width="236.000000pt" height="236.000000pt" viewBox="0 0 236.000000 236.000000"
 preserveAspectRatio="xMidYMid meet">

<g transform="translate(0.000000,236.000000) scale(0.100000,-0.100000)"
fill="#000000" stroke="none">
<path d="M0 1180 l0 -1180 1180 0 1180 0 0 1180 0 1180 -1180 0 -1180 0 0
-1180z m690 363 l0 -197 33 31 c56 54 94 68 182 68 92 0 147 -23 188 -77 43
-57 47 -89 48 -378 l1 -275 -91 -3 c-89 -3 -91 -2 -91 20 3 175 -9 498 -19
516 -28 53 -124 68 -182 29 -61 -41 -64 -56 -67 -324 l-3 -243 -94 0 -95 0 0
515 0 515 95 0 95 0 0 -197z m740 1 l0 -196 39 35 c109 98 295 84 374 -29 24
-35 30 -55 38 -146 6 -59 9 -193 7 -300 l-3 -193 -92 -3 -93 -3 -1 218 c-1
275 -6 319 -45 350 -39 31 -108 32 -155 0 -61 -41 -64 -56 -67 -324 l-3 -243
-94 0 -95 0 0 515 0 515 95 0 95 0 0 -196z"/>
</g>
</svg>
